<?xml version="1.0" standalone="no"?>
<!DOCTYPE svg PUBLIC "-//W3C//DTD SVG 20010904//EN"
 "http://www.w3.org/TR/2001/REC-SVG-20010904/DTD/svg10.dtd">
<svg version="1.0" xmlns="http://www.w3.org/2000/svg"
 width="700.000000pt" height="700.000000pt" viewBox="0 0 700.000000 700.000000"
 preserveAspectRatio="xMidYMid meet">
<metadata>
Created by potrace 1.11, written by Peter Selinger 2001-2013
</metadata>
<g transform="translate(0.000000,700.000000) scale(0.100000,-0.100000)"
fill="#000000" stroke="none">
<path d="M3860 5733 c10 -21 39 -85 65 -143 26 -58 67 -147 91 -199 24 -51 44
-95 44 -97 0 -1 25 -55 55 -119 30 -65 55 -118 55 -120 0 -2 23 -51 50 -110
28 -59 50 -108 50 -110 0 -2 22 -50 48 -107 26 -57 52 -113 57 -126 9 -21 41
9 437 405 235 236 430 431 433 434 3 4 -56 21 -132 38 -76 18 -165 38 -198 46
-33 8 -89 21 -125 29 -36 8 -114 27 -175 40 -60 14 -200 46 -310 72 -110 25
-207 47 -215 49 -8 2 -66 15 -129 29 -62 14 -115 26 -116 26 -2 0 5 -17 15
-37z"/>
<path d="M3116 5218 c-327 -329 -520 -528 -509 -529 10 0 26 -2 36 -4 10 -2
55 -6 99 -10 45 -4 89 -8 97 -10 9 -1 50 -6 91 -9 72 -7 104 -10 188 -21 20
-2 63 -7 95 -10 31 -3 83 -7 115 -10 31 -3 73 -8 92 -10 19 -2 82 -9 140 -15
58 -6 123 -13 145 -15 22 -2 67 -7 100 -10 33 -3 76 -8 95 -10 34 -4 87 -9
205 -20 33 -3 68 -8 78 -11 23 -7 40 -48 -248 581 -136 297 -257 563 -270 590
l-22 50 -527 -527z"/>
<path d="M4919 4841 l-446 -446 57 -125 c31 -69 66 -145 77 -170 12 -25 80
-173 151 -330 71 -157 144 -316 162 -355 18 -38 67 -146 110 -240 43 -93 92
-201 110 -240 18 -38 42 -92 55 -120 25 -55 39 -85 162 -355 47 -102 130 -283
184 -402 54 -119 115 -251 134 -292 19 -41 35 -80 35 -86 0 -5 5 -10 10 -10 6
0 10 -6 10 -13 0 -7 9 -31 20 -53 l20 -39 -5 70 c-3 39 -8 84 -10 100 -3 27
-8 65 -21 190 -2 22 -6 60 -9 85 -3 25 -7 65 -10 90 -2 25 -7 65 -9 90 -10 87
-18 165 -21 190 -1 14 -5 48 -9 75 -7 62 -13 119 -21 210 -4 39 -8 77 -10 85
-2 8 -7 51 -11 95 -3 44 -8 88 -9 97 -2 9 -7 48 -10 85 -4 37 -8 79 -10 93 -2
14 -7 57 -10 95 -3 39 -8 81 -10 95 -2 14 -7 48 -9 75 -3 28 -8 73 -11 100 -2
28 -7 76 -11 108 -3 32 -7 66 -9 76 -2 10 -6 54 -10 97 -4 43 -8 90 -11 104
-2 14 -6 54 -9 90 -3 36 -8 76 -10 90 -5 26 -26 219 -30 280 -3 33 -10 103
-20 180 -2 19 -7 62 -10 95 -4 33 -8 74 -10 90 -2 17 -6 55 -10 85 -3 30 -8
78 -10 105 -3 28 -8 66 -10 85 -3 19 -7 62 -10 95 -8 88 -25 218 -28 222 -1 0
-203 -200 -448 -446z"/>
<path d="M2494 4434 c4 -44 9 -95 11 -114 10 -91 28 -261 40 -382 8 -80 16
-152 20 -178 2 -14 7 -59 10 -100 3 -41 8 -88 10 -105 2 -16 7 -57 10 -90 10
-98 14 -135 24 -235 6 -53 13 -125 17 -160 10 -109 22 -201 27 -206 2 -3 336
327 740 733 405 405 735 738 734 739 -1 1 -36 5 -77 9 -112 11 -120 12 -190
19 -36 4 -76 9 -90 11 -14 2 -63 7 -110 10 -47 4 -94 9 -105 11 -11 2 -52 6
-92 9 -40 4 -81 8 -91 10 -10 2 -58 6 -108 10 -49 4 -96 9 -105 10 -21 4 -98
13 -179 20 -36 4 -76 8 -90 10 -14 2 -61 6 -104 10 -43 4 -86 8 -95 10 -9 1
-52 6 -96 9 -44 4 -88 10 -99 13 -17 5 -18 0 -12 -73z"/>
<path d="M1775 3875 l-525 -525 127 -60 c69 -33 127 -60 129 -60 2 0 54 -24
116 -54 62 -29 136 -64 163 -76 28 -12 151 -70 275 -128 124 -57 240 -111 258
-119 19 -8 61 -27 94 -43 l59 -29 -6 67 c-3 37 -8 81 -10 97 -2 17 -7 57 -10
90 -3 33 -10 101 -15 150 -6 50 -13 115 -15 145 -3 30 -8 75 -11 100 -2 25 -7
63 -9 85 -3 22 -7 65 -9 95 -3 30 -8 84 -11 120 -4 36 -8 72 -10 80 -2 8 -7
53 -10 100 -4 47 -8 92 -10 100 -2 8 -7 51 -11 95 -3 44 -8 87 -9 96 -4 17
-18 166 -18 187 0 6 -2 12 -3 12 -2 0 -240 -236 -529 -525z"/>
<path d="M3527 3449 l-787 -790 122 -58 c133 -63 193 -91 393 -183 72 -33 166
-77 210 -98 44 -21 105 -49 135 -63 69 -31 197 -90 275 -127 58 -27 122 -57
270 -125 39 -18 104 -48 145 -68 41 -19 226 -105 410 -190 370 -171 459 -213
570 -265 41 -19 150 -70 242 -112 l166 -77 -18 41 c-16 37 -317 696 -375 821
-13 28 -84 183 -158 345 -74 162 -149 327 -167 365 -18 39 -55 120 -82 180
-28 61 -63 137 -78 170 -35 75 -57 123 -220 480 -73 160 -158 346 -189 414
-31 69 -61 126 -66 127 -6 1 -364 -353 -798 -787z"/>
<path d="M1237 3087 c20 -84 73 -318 78 -340 2 -10 6 -26 9 -35 3 -9 7 -28 10
-42 4 -21 18 -83 31 -140 4 -14 83 -358 139 -600 15 -63 31 -131 37 -152 l9
-36 425 425 c234 234 425 428 425 432 -1 3 -65 35 -143 71 -78 35 -206 95
-285 132 -78 37 -144 68 -146 68 -2 0 -120 55 -262 121 -142 67 -278 129 -300
139 l-42 18 15 -61z"/>
<path d="M2150 2069 c-242 -243 -439 -443 -438 -444 2 -2 32 -6 68 -9 36 -4
76 -9 90 -11 14 -2 54 -7 90 -10 67 -7 102 -10 180 -20 25 -2 68 -7 95 -10 28
-2 93 -9 145 -15 141 -15 179 -19 240 -25 30 -3 69 -8 85 -10 17 -2 56 -7 88
-10 31 -3 83 -7 115 -10 31 -3 71 -8 89 -10 18 -3 58 -7 90 -10 32 -3 75 -8
96 -10 103 -13 107 -14 285 -30 31 -3 68 -8 82 -10 14 -2 54 -7 90 -10 63 -6
89 -9 175 -19 22 -3 69 -8 105 -11 73 -7 79 -8 275 -30 237 -26 215 -24 380
-40 28 -3 66 -7 85 -10 19 -2 58 -7 85 -9 88 -9 159 -17 195 -21 19 -3 62 -7
95 -10 33 -3 78 -7 100 -10 22 -2 63 -7 90 -10 28 -3 64 -8 80 -11 65 -11 28
8 -402 207 -35 16 -93 43 -130 60 -38 17 -102 47 -143 66 -41 20 -136 64 -210
98 -74 34 -175 82 -225 105 -49 23 -108 50 -130 60 -22 10 -141 65 -265 122
-124 58 -250 117 -280 131 -30 14 -125 58 -210 97 -430 201 -711 330 -716 330
-2 0 -202 -199 -444 -441z"/>
</g>
</svg>
