<?xml version="1.0" standalone="no"?>
<!DOCTYPE svg PUBLIC "-//W3C//DTD SVG 20010904//EN"
 "http://www.w3.org/TR/2001/REC-SVG-20010904/DTD/svg10.dtd">
<svg version="1.0" xmlns="http://www.w3.org/2000/svg"
 width="700.000000pt" height="700.000000pt" viewBox="0 0 700.000000 700.000000"
 preserveAspectRatio="xMidYMid meet">
<metadata>
Created by potrace 1.11, written by Peter Selinger 2001-2013
</metadata>
<g transform="translate(0.000000,700.000000) scale(0.100000,-0.100000)"
fill="#000000" stroke="none">
<path d="M3421 5590 c-77 -19 -138 -84 -218 -230 -17 -30 -144 -260 -283 -510
-139 -250 -266 -480 -283 -510 -16 -30 -85 -154 -152 -275 -67 -121 -140 -251
-161 -290 -20 -38 -59 -108 -86 -154 -26 -46 -48 -86 -48 -88 0 -1 -29 -54
-64 -116 -53 -94 -140 -250 -296 -532 -15 -27 -95 -171 -177 -320 -83 -148
-164 -295 -180 -325 -17 -30 -70 -127 -119 -215 -49 -88 -95 -174 -103 -190
-7 -17 -17 -37 -22 -47 -16 -31 -4 -170 18 -219 25 -56 84 -117 138 -144 39
-20 72 -20 2110 -20 l2070 0 41 22 c103 55 166 172 160 292 -5 74 -8 82 -183
396 -83 149 -167 302 -189 340 -21 39 -62 112 -91 164 -29 51 -53 95 -53 97 0
2 -14 26 -30 54 -17 28 -45 79 -64 113 -34 63 -115 210 -156 282 -13 22 -35
63 -50 90 -15 28 -36 66 -47 85 -11 19 -35 62 -53 95 -18 33 -40 74 -50 90 -9
17 -31 55 -47 85 -44 80 -229 415 -310 560 -38 69 -83 150 -100 180 -204 369
-285 515 -313 565 -18 33 -95 171 -171 307 -75 136 -149 262 -163 281 -55 72
-179 111 -275 87z"/>
</g>
</svg>
