<?xml version="1.0" standalone="no"?>
<!DOCTYPE svg PUBLIC "-//W3C//DTD SVG 20010904//EN"
 "http://www.w3.org/TR/2001/REC-SVG-20010904/DTD/svg10.dtd">
<svg version="1.0" xmlns="http://www.w3.org/2000/svg"
 width="700.000000pt" height="700.000000pt" viewBox="0 0 700.000000 700.000000"
 preserveAspectRatio="xMidYMid meet">
<metadata>
Created by potrace 1.14, written by Peter Selinger 2001-2017
</metadata>
<g transform="translate(0.000000,700.000000) scale(0.100000,-0.100000)"
fill="#000000" stroke="none">
<path d="M2178 4815 c-2 -1 -37 -5 -78 -9 -385 -31 -648 -261 -695 -606 -12
-88 -7 -267 10 -337 32 -129 98 -238 202 -333 106 -96 250 -187 483 -304 185
-93 307 -160 345 -188 180 -134 273 -262 311 -427 20 -91 15 -303 -10 -396
-58 -215 -212 -387 -422 -470 -121 -48 -221 -63 -379 -59 -150 4 -169 6 -289
40 -101 29 -158 53 -234 101 -29 18 -56 33 -60 33 -4 0 -17 -21 -28 -46 -21
-46 -21 -47 -3 -65 52 -52 302 -147 436 -166 68 -9 315 -10 388 -1 136 16 288
72 395 144 244 164 363 410 356 739 -6 235 -72 400 -223 550 -81 81 -186 148
-458 290 -363 190 -503 287 -591 411 -71 99 -96 184 -100 329 -6 210 45 357
165 476 96 93 200 141 381 174 41 8 242 9 285 1 17 -3 50 -8 75 -11 68 -10
157 -42 237 -86 72 -39 72 -39 84 -18 24 46 28 77 11 92 -51 45 -226 109 -342
126 -72 10 -246 21 -252 16z"/>
<path d="M4395 4809 c-236 -26 -426 -81 -591 -170 -40 -22 -77 -46 -84 -54
-14 -17 -6 -61 16 -90 15 -20 15 -20 47 -1 177 105 352 170 507 191 25 3 58 8
74 11 16 4 84 6 150 6 193 -1 318 -38 444 -131 209 -155 316 -369 357 -711 16
-131 23 -365 12 -376 -4 -4 -27 -9 -50 -10 -23 -1 -105 -5 -182 -8 -77 -4
-158 -9 -180 -11 -122 -13 -157 -17 -230 -30 -44 -8 -98 -18 -120 -21 -109
-16 -324 -82 -465 -142 -371 -158 -596 -399 -653 -702 -18 -100 -14 -287 8
-371 89 -328 358 -563 700 -611 97 -14 257 -16 345 -4 262 35 485 168 693 411
37 44 71 85 75 90 4 6 20 29 36 53 16 23 33 42 37 42 10 0 10 4 14 -135 3 -93
14 -288 19 -345 2 -14 4 -32 4 -41 2 -13 13 -16 55 -15 52 2 81 11 73 25 -3 4
-7 40 -11 81 -18 230 -25 496 -30 1259 -4 594 -9 814 -20 873 -2 9 -7 38 -11
65 -3 26 -8 57 -10 68 -3 11 -7 36 -10 55 -15 94 -82 262 -148 373 -101 166
-289 304 -476 350 -116 28 -280 39 -395 26z m938 -1805 c-2 -518 -9 -597 -68
-729 -72 -164 -289 -387 -476 -489 -309 -169 -717 -143 -964 60 -196 163 -280
405 -239 686 29 191 147 367 339 503 159 114 411 213 660 261 125 24 162 30
260 39 28 3 66 8 85 10 19 3 105 8 190 11 85 4 156 8 158 9 2 2 15 0 30 -4
l27 -7 -2 -350z"/>
</g>
</svg>
