<?xml version="1.0" standalone="no"?>
<!DOCTYPE svg PUBLIC "-//W3C//DTD SVG 20010904//EN"
 "http://www.w3.org/TR/2001/REC-SVG-20010904/DTD/svg10.dtd">
<svg version="1.0" xmlns="http://www.w3.org/2000/svg"
 width="1184.000000pt" height="1184.000000pt" viewBox="0 0 1184.000000 1184.000000"
 preserveAspectRatio="xMidYMid meet">
<metadata>
Created by potrace 1.11, written by Peter Selinger 2001-2013
</metadata>
<g transform="translate(0.000000,1184.000000) scale(0.100000,-0.100000)"
fill="#000000" stroke="none">
<path d="M5975 10208 c-449 -33 -819 -136 -1174 -326 -358 -192 -628 -444
-826 -772 -328 -542 -366 -1303 -94 -1866 225 -465 679 -859 1348 -1172 108
-51 377 -161 431 -177 30 -9 208 -79 265 -105 22 -9 85 -37 140 -61 119 -51
350 -168 456 -232 207 -123 388 -283 522 -461 109 -145 190 -387 206 -616 29
-420 -86 -766 -336 -1014 -224 -224 -500 -360 -848 -420 -309 -54 -707 -48
-1050 14 -393 71 -838 231 -1144 409 -40 24 -77 39 -81 35 -4 -5 -25 -65 -45
-134 -20 -69 -75 -253 -122 -408 -46 -156 -82 -289 -80 -296 7 -17 298 -165
422 -214 524 -209 1187 -313 1789 -283 405 20 684 68 1006 173 102 33 285 103
310 119 8 5 26 14 40 19 68 28 315 170 373 214 52 39 182 150 207 177 127 134
235 271 286 362 72 130 167 336 204 444 128 370 156 825 75 1228 -86 426 -307
805 -634 1088 -350 304 -694 494 -1428 788 -573 229 -900 415 -1119 633 -210
211 -314 433 -331 711 -7 121 5 197 54 340 49 143 139 310 218 402 122 144
190 204 354 311 137 89 263 146 411 186 208 56 245 61 490 61 252 -1 376 -13
610 -61 227 -47 515 -147 724 -251 48 -24 91 -42 94 -38 19 19 290 811 280
820 -15 13 -227 112 -321 149 -445 176 -1120 266 -1682 224z"/>
</g>
</svg>
