<?xml version="1.0" standalone="no"?>
<!DOCTYPE svg PUBLIC "-//W3C//DTD SVG 20010904//EN"
 "http://www.w3.org/TR/2001/REC-SVG-20010904/DTD/svg10.dtd">
<svg version="1.0" xmlns="http://www.w3.org/2000/svg"
 width="1000.000000pt" height="1000.000000pt" viewBox="0 0 1000.000000 1000.000000"
 preserveAspectRatio="xMidYMid meet">
<metadata>
Created by potrace 1.11, written by Peter Selinger 2001-2013
</metadata>
<g transform="translate(0.000000,1000.000000) scale(0.100000,-0.100000)"
fill="#000000" stroke="none">
<path d="M5048 8525 c-2 -2 -39 -6 -83 -10 -223 -20 -532 -110 -695 -205 -25
-14 -52 -29 -62 -32 -21 -8 -139 -90 -197 -136 -288 -232 -485 -562 -556 -934
-25 -133 -30 -192 -30 -383 1 -260 37 -429 132 -620 44 -87 135 -234 164 -265
8 -8 31 -36 52 -63 58 -71 162 -171 262 -251 196 -157 347 -244 867 -503 267
-132 405 -204 598 -311 25 -13 88 -53 140 -87 380 -251 635 -579 725 -935 33
-132 39 -182 39 -360 0 -140 -2 -183 -19 -315 -16 -121 -79 -321 -142 -452
-91 -189 -194 -322 -373 -483 -36 -32 -204 -150 -214 -150 -3 0 -27 -13 -53
-28 -152 -88 -420 -176 -598 -196 -27 -4 -61 -9 -75 -12 -41 -9 -420 -12 -485
-4 -33 5 -85 11 -115 15 -145 18 -405 86 -557 146 -150 59 -303 145 -378 210
-25 22 -36 27 -40 17 -2 -7 -18 -51 -35 -98 l-30 -85 28 -23 c36 -30 181 -113
262 -150 228 -104 554 -193 794 -217 132 -14 340 -19 436 -11 30 3 89 8 130
11 139 12 317 49 460 95 370 118 684 341 896 635 139 194 237 424 289 678 2
10 6 26 9 35 10 35 29 196 29 254 1 27 4 48 9 48 4 0 6 6 3 13 -2 6 -6 76 -9
155 -3 78 -7 146 -9 150 -3 4 -8 31 -11 61 -4 29 -8 57 -11 61 -2 3 -6 17 -8
31 -47 255 -229 560 -472 791 -110 104 -357 298 -380 298 -3 0 -21 11 -38 24
-18 13 -50 33 -72 45 -22 12 -53 30 -70 41 -63 39 -151 86 -495 260 -505 255
-597 306 -758 417 -340 236 -553 513 -630 823 -29 117 -34 163 -37 325 -4 272
45 490 161 715 139 269 346 469 629 609 145 72 215 97 357 130 82 19 101 22
228 40 71 9 405 7 485 -4 263 -35 570 -139 734 -249 l52 -35 20 44 c10 25 28
65 39 90 l19 45 -37 24 c-84 53 -215 111 -367 164 -65 23 -217 63 -251 67 -11
2 -45 8 -75 13 -30 6 -81 14 -114 18 -59 7 -461 15 -467 9z"/>
</g>
</svg>
