<?xml version="1.0" standalone="no"?>
<!DOCTYPE svg PUBLIC "-//W3C//DTD SVG 20010904//EN"
 "http://www.w3.org/TR/2001/REC-SVG-20010904/DTD/svg10.dtd">
<svg version="1.0" xmlns="http://www.w3.org/2000/svg"
 width="700.000000pt" height="700.000000pt" viewBox="0 0 700.000000 700.000000"
 preserveAspectRatio="xMidYMid meet">
<metadata>
Created by potrace 1.11, written by Peter Selinger 2001-2013
</metadata>
<g transform="translate(0.000000,700.000000) scale(0.100000,-0.100000)"
fill="#000000" stroke="none">
<path d="M3170 5587 c-51 -16 -103 -74 -123 -136 -15 -48 -17 -119 -17 -767
l0 -714 -737 -2 -738 -3 -42 -24 c-47 -27 -88 -80 -103 -132 -15 -50 -13 -582
2 -631 6 -22 28 -57 49 -78 69 -71 53 -70 856 -70 l713 0 2 -737 3 -738 28
-47 c18 -31 44 -57 75 -75 l47 -28 295 -3 c335 -4 362 0 421 59 70 70 69 55
69 856 l0 713 728 0 728 0 55 28 c40 20 61 39 84 76 l30 49 0 323 0 322 -30
43 c-18 26 -50 53 -80 68 l-49 26 -733 3 -733 3 -2 737 -3 737 -28 47 c-18 31
-44 57 -75 75 l-47 28 -305 2 c-204 1 -316 -2 -340 -10z"/>
</g>
</svg>
