<?xml version="1.0" standalone="no"?>
<!DOCTYPE svg PUBLIC "-//W3C//DTD SVG 20010904//EN"
 "http://www.w3.org/TR/2001/REC-SVG-20010904/DTD/svg10.dtd">
<svg version="1.0" xmlns="http://www.w3.org/2000/svg"
 width="2560.000000pt" height="2560.000000pt" viewBox="0 0 2560.000000 2560.000000"
 preserveAspectRatio="xMidYMid meet">
<metadata>
Created by potrace 1.11, written by Peter Selinger 2001-2013
</metadata>
<g transform="translate(0.000000,2560.000000) scale(0.100000,-0.100000)"
fill="#000000" stroke="none">
<path d="M12715 22828 c-44 -122 -96 -267 -117 -322 -39 -109 -86 -239 -168
-466 -29 -80 -56 -154 -60 -165 -4 -11 -15 -38 -23 -60 -9 -22 -77 -211 -152
-420 -75 -209 -141 -389 -146 -400 -4 -11 -27 -72 -49 -135 -23 -63 -47 -131
-55 -150 -16 -41 -205 -560 -209 -575 -2 -5 -6 -17 -9 -25 -3 -8 -22 -60 -42
-115 -88 -245 -127 -352 -140 -385 -8 -19 -26 -69 -40 -110 -14 -41 -29 -84
-34 -95 -10 -23 -132 -355 -135 -370 -2 -5 -8 -23 -15 -40 -7 -16 -21 -57 -33
-90 -11 -33 -30 -87 -43 -120 -22 -57 -169 -462 -240 -660 -72 -202 -207 -571
-215 -590 -4 -11 -25 -67 -45 -125 -20 -58 -48 -134 -62 -170 -14 -36 -31 -85
-39 -110 -8 -25 -19 -54 -24 -65 -5 -11 -49 -128 -96 -260 -48 -132 -102 -283
-121 -335 -19 -52 -46 -124 -58 -160 -13 -36 -82 -227 -155 -425 -297 -814
-464 -1274 -487 -1340 -13 -38 -28 -79 -33 -90 -5 -11 -57 -153 -115 -315 -59
-162 -122 -335 -140 -385 -63 -171 -208 -570 -226 -620 -22 -63 -168 -465
-176 -485 -3 -8 -7 -19 -9 -25 -1 -5 -37 -104 -80 -220 -42 -115 -91 -250
-109 -300 -18 -49 -51 -139 -73 -200 -22 -60 -79 -217 -127 -348 -47 -131 -90
-248 -95 -260 -5 -12 -29 -78 -54 -147 -88 -246 -260 -721 -393 -1085 -74
-203 -152 -419 -174 -480 -22 -60 -46 -126 -54 -145 -7 -19 -25 -66 -39 -105
-50 -140 -189 -523 -238 -655 -27 -74 -51 -139 -52 -145 -2 -5 -6 -17 -9 -25
-3 -8 -52 -141 -107 -295 -56 -154 -108 -298 -117 -320 -8 -22 -34 -94 -58
-160 -24 -66 -59 -163 -78 -215 -19 -52 -64 -176 -100 -275 -36 -99 -80 -218
-97 -265 -18 -47 -35 -96 -40 -110 -9 -27 -188 -522 -219 -605 -31 -82 -186
-508 -271 -745 -21 -58 -45 -123 -53 -145 -9 -22 -46 -123 -82 -225 -37 -102
-82 -225 -100 -275 -49 -131 -334 -914 -381 -1047 -30 -83 -219 -604 -270
-743 -31 -82 -67 -181 -81 -220 -13 -38 -40 -110 -58 -160 -18 -49 -36 -100
-40 -113 l-6 -22 467 2 467 3 24 65 c12 36 32 88 42 115 11 28 60 163 110 302
50 138 95 262 100 275 6 13 28 75 51 138 22 63 43 122 47 130 3 8 7 20 9 25 1
6 71 197 154 425 84 228 174 476 200 550 72 201 319 880 335 920 12 31 302
827 353 970 11 30 56 156 102 280 45 124 91 250 102 280 10 30 23 64 28 75 4
11 114 313 244 670 129 358 260 720 291 805 31 85 86 236 122 335 35 99 68
189 73 200 5 11 39 103 75 205 74 206 89 249 133 365 16 44 63 170 102 280 40
110 88 243 107 295 19 52 39 109 45 125 5 17 16 44 23 60 7 17 16 41 20 55 4
14 17 52 30 85 13 33 46 125 75 205 28 80 94 260 145 400 51 140 132 361 179
492 47 130 90 247 95 260 6 12 26 70 46 128 20 58 42 119 50 135 7 17 16 41
20 55 4 14 18 52 30 85 13 33 91 247 174 476 82 229 155 427 160 440 6 13 79
213 162 444 84 231 165 456 181 500 16 44 51 141 78 215 27 74 81 223 120 330
40 107 82 224 95 260 12 36 77 216 145 400 214 586 362 993 382 1050 10 30 23
64 28 75 4 11 50 135 100 275 51 140 107 296 125 345 18 50 153 421 300 825
146 404 271 746 277 760 6 14 23 61 38 105 16 44 44 123 63 175 19 52 65 178
101 280 37 102 73 201 81 220 7 20 43 119 80 220 37 102 82 226 100 275 19 50
54 149 80 220 25 72 52 145 60 163 8 18 15 40 15 48 0 34 19 0 50 -88 17 -51
36 -102 41 -113 5 -11 54 -146 109 -300 56 -154 109 -302 120 -330 10 -27 33
-90 51 -140 17 -49 35 -99 40 -110 13 -31 131 -355 145 -400 7 -22 22 -65 34
-95 12 -30 39 -102 59 -160 94 -258 179 -493 263 -720 49 -135 90 -249 92
-255 1 -5 4 -14 7 -20 4 -5 12 -28 18 -50 7 -22 16 -49 21 -60 12 -26 129
-348 146 -400 7 -22 22 -65 34 -95 26 -67 93 -250 126 -345 13 -38 28 -79 33
-90 5 -11 21 -51 34 -90 41 -117 258 -719 268 -740 4 -11 27 -72 50 -135 22
-63 75 -207 116 -320 41 -113 81 -225 90 -250 8 -25 19 -54 24 -65 14 -33 60
-159 64 -175 4 -17 121 -339 140 -385 7 -16 43 -115 80 -220 37 -104 71 -199
76 -210 7 -17 195 -536 281 -775 16 -47 34 -94 39 -105 5 -11 45 -121 89 -245
45 -124 85 -234 90 -245 9 -20 89 -242 94 -260 2 -5 8 -23 14 -38 7 -15 15
-40 18 -55 4 -15 10 -31 14 -37 4 -5 19 -44 33 -85 14 -41 39 -111 55 -155 16
-44 64 -177 107 -295 42 -118 81 -224 86 -235 5 -11 36 -96 70 -190 33 -93 88
-244 121 -335 66 -180 103 -283 178 -490 27 -74 62 -171 78 -215 16 -44 64
-177 107 -295 42 -118 81 -224 86 -235 5 -11 36 -96 70 -190 90 -252 148 -413
174 -480 12 -33 41 -114 65 -180 23 -66 46 -129 51 -140 4 -11 27 -72 50 -135
22 -63 75 -207 116 -320 41 -113 90 -250 110 -305 19 -55 39 -109 44 -120 4
-11 26 -69 48 -130 22 -60 81 -222 131 -360 50 -137 92 -254 94 -260 1 -5 4
-14 7 -20 4 -5 12 -28 18 -50 7 -22 16 -49 21 -60 12 -26 129 -348 146 -400 7
-22 22 -65 34 -95 11 -30 46 -125 76 -210 31 -85 60 -164 65 -175 5 -11 54
-146 109 -300 56 -154 109 -302 120 -330 10 -27 33 -90 51 -140 17 -49 35 -99
40 -110 7 -17 172 -472 281 -775 17 -47 36 -98 43 -115 7 -16 43 -115 80 -220
37 -104 71 -199 76 -210 11 -26 110 -297 113 -310 1 -5 4 -14 7 -20 4 -5 12
-28 19 -50 6 -22 18 -53 25 -70 7 -16 17 -42 20 -57 l7 -28 -5376 0 -5376 0 0
-440 0 -440 6006 0 c5720 0 6006 1 6001 17 -9 30 -117 327 -126 348 -5 11 -32
85 -61 165 -28 80 -58 162 -66 183 -8 21 -35 95 -60 165 -25 70 -70 195 -101
277 -30 83 -66 182 -80 220 -36 102 -73 203 -94 260 -10 28 -44 120 -75 205
-77 214 -126 348 -169 465 -21 55 -57 154 -80 220 -24 66 -78 215 -120 330
-42 116 -85 233 -94 260 -36 100 -154 422 -188 515 -20 52 -39 106 -43 120 -5
14 -22 61 -38 105 -27 72 -420 1152 -455 1250 -8 22 -51 141 -97 265 -45 124
-100 275 -122 335 -22 61 -46 128 -55 150 -8 22 -16 45 -17 50 -2 6 -6 17 -9
25 -3 8 -23 60 -43 115 -69 193 -114 316 -154 423 -21 59 -55 150 -73 202 -19
52 -73 203 -121 335 -99 271 -338 926 -428 1175 -33 91 -64 176 -68 190 -5 14
-20 57 -35 95 -14 39 -46 126 -71 195 -25 69 -51 141 -59 160 -8 19 -44 118
-80 220 -37 102 -81 226 -100 275 -18 50 -99 272 -179 495 -81 223 -153 421
-161 440 -7 20 -43 119 -80 220 -36 102 -73 203 -82 225 -8 22 -28 78 -45 125
-16 47 -33 94 -38 105 -5 11 -36 97 -70 190 -34 94 -79 217 -100 275 -21 58
-69 188 -105 290 -37 102 -73 201 -81 220 -7 19 -70 193 -140 385 -70 193
-140 386 -156 430 -16 44 -40 109 -53 145 -25 71 -62 174 -180 495 -42 116
-94 257 -115 315 -146 408 -233 648 -241 665 -9 21 -435 1191 -449 1235 -5 14
-56 156 -115 315 -59 160 -111 304 -116 320 -5 17 -13 39 -18 50 -5 11 -50
135 -101 275 -50 140 -95 264 -100 275 -5 11 -36 99 -70 195 -34 96 -66 184
-71 195 -5 11 -24 63 -43 115 -62 174 -167 464 -201 555 -28 74 -238 653 -807
2220 -22 61 -44 119 -48 130 -5 11 -28 75 -52 142 -24 68 -45 123 -48 123 -3
0 -41 -100 -85 -222z"/>
</g>
</svg>
