<?xml version="1.0" standalone="no"?>
<!DOCTYPE svg PUBLIC "-//W3C//DTD SVG 20010904//EN"
 "http://www.w3.org/TR/2001/REC-SVG-20010904/DTD/svg10.dtd">
<svg version="1.0" xmlns="http://www.w3.org/2000/svg"
 width="1276.000000pt" height="1276.000000pt" viewBox="0 0 1276.000000 1276.000000"
 preserveAspectRatio="xMidYMid meet">
<metadata>
Created by potrace 1.11, written by Peter Selinger 2001-2013
</metadata>
<g transform="translate(0.000000,1276.000000) scale(0.100000,-0.100000)"
fill="#000000" stroke="none">
<path d="M5950 12245 c-234 -19 -419 -41 -613 -76 -578 -103 -975 -235 -1607
-532 -102 -47 -388 -212 -533 -305 -225 -146 -433 -302 -683 -512 -114 -96
-487 -469 -584 -584 -243 -288 -476 -611 -615 -851 -31 -55 -81 -140 -110
-190 -29 -49 -85 -158 -124 -242 -225 -484 -340 -804 -435 -1220 -115 -502
-163 -958 -152 -1463 3 -157 10 -334 16 -395 66 -717 227 -1332 505 -1935 37
-80 83 -178 101 -219 43 -91 201 -366 305 -529 140 -218 283 -410 493 -661
174 -207 565 -580 836 -797 241 -192 738 -509 970 -617 397 -185 523 -237 756
-317 1202 -410 2575 -412 3779 -6 245 82 368 134 775 323 254 119 728 423
1000 642 213 171 279 231 504 456 398 398 656 731 940 1215 231 394 452 916
571 1350 138 506 200 945 211 1490 14 666 -81 1313 -283 1935 -78 242 -160
439 -340 825 -125 267 -467 792 -687 1055 -28 34 -87 104 -130 156 -97 115
-464 484 -566 568 -418 345 -597 472 -975 691 -156 90 -224 125 -470 237 -461
210 -921 352 -1415 437 -453 78 -1005 105 -1440 71z m1055 -1765 c469 -20 894
-89 1270 -205 234 -73 465 -167 465 -189 0 -15 -262 -974 -333 -1216 -29 -102
-58 -184 -63 -183 -5 1 -65 27 -134 57 -430 186 -886 287 -1370 303 -486 16
-849 -95 -1064 -327 -105 -115 -156 -250 -156 -420 0 -414 275 -639 1230
-1005 793 -305 1134 -487 1495 -797 314 -271 546 -636 639 -1006 57 -225 79
-471 65 -724 -17 -314 -83 -573 -214 -843 -111 -229 -254 -426 -442 -605 -293
-281 -587 -451 -1048 -607 -408 -138 -860 -203 -1412 -203 -592 0 -1156 89
-1716 270 -252 82 -477 181 -477 211 0 10 60 258 134 551 74 293 153 612 176
708 23 96 43 176 45 178 2 2 30 -10 64 -27 246 -125 632 -263 921 -331 356
-84 597 -114 930 -114 358 -1 567 35 788 134 217 99 383 290 437 505 25 96 25
286 1 375 -31 114 -93 226 -175 313 -92 97 -152 144 -303 235 -206 123 -405
211 -825 363 -237 85 -363 139 -598 253 -352 171 -557 304 -801 517 -351 307
-582 707 -666 1154 -19 102 -22 154 -23 350 0 301 17 412 106 685 48 148 164
389 248 516 112 170 362 427 531 546 545 386 1142 560 2000 586 25 1 149 -3
275 -8z"/>
</g>
</svg>
