<?xml version="1.0" standalone="no"?>
<!DOCTYPE svg PUBLIC "-//W3C//DTD SVG 20010904//EN"
 "http://www.w3.org/TR/2001/REC-SVG-20010904/DTD/svg10.dtd">
<svg version="1.0" xmlns="http://www.w3.org/2000/svg"
 width="1024.000000pt" height="1024.000000pt" viewBox="0 0 1024.000000 1024.000000"
 preserveAspectRatio="xMidYMid meet">
<metadata>
Created by potrace 1.11, written by Peter Selinger 2001-2013
</metadata>
<g transform="translate(0.000000,1024.000000) scale(0.100000,-0.100000)"
fill="#000000" stroke="none">
<path d="M3217 7044 c-1 -1 -47 -4 -102 -8 -464 -30 -811 -239 -973 -586 -73
-157 -102 -320 -98 -540 2 -85 6 -168 10 -185 4 -16 9 -43 12 -60 22 -113 93
-266 169 -365 102 -133 337 -317 568 -445 58 -33 282 -145 427 -214 374 -178
613 -378 728 -606 36 -71 69 -169 77 -228 3 -23 9 -51 12 -61 12 -41 10 -285
-3 -376 -60 -417 -332 -733 -734 -853 -47 -14 -102 -28 -124 -32 -21 -3 -41
-7 -45 -9 -7 -5 -196 -19 -251 -19 -50 0 -253 14 -260 18 -3 2 -23 6 -45 9
-195 31 -409 114 -547 212 l-48 34 -35 -70 c-19 -38 -35 -73 -35 -78 0 -27
246 -155 376 -196 114 -35 154 -45 253 -62 18 -3 43 -7 55 -10 133 -25 460
-20 611 10 17 4 46 9 65 12 87 14 247 72 350 126 353 187 579 530 617 938 33
355 -35 650 -202 875 -153 207 -304 311 -855 593 -762 389 -955 614 -952 1107
4 566 383 907 1007 907 296 0 521 -55 713 -175 35 -22 64 -38 66 -36 1 2 15
34 31 71 33 80 32 82 -59 133 -121 67 -315 132 -451 149 -91 12 -321 26 -328
20z"/>
<path d="M6462 7039 c-320 -29 -609 -106 -852 -228 -89 -45 -190 -108 -190
-120 0 -12 51 -135 60 -144 4 -5 41 14 81 41 150 102 327 176 548 231 103 26
155 36 306 56 86 11 392 4 414 -10 4 -2 26 -6 50 -10 53 -8 159 -40 198 -60
15 -8 32 -15 37 -15 27 0 214 -141 284 -214 187 -195 312 -466 358 -773 3 -21
7 -45 9 -53 2 -8 7 -46 10 -85 4 -38 8 -81 11 -95 11 -66 23 -470 14 -475 -3
-1 -102 -6 -220 -10 -118 -4 -233 -8 -255 -10 -99 -8 -256 -23 -305 -30 -14
-1 -63 -8 -110 -15 -71 -10 -164 -27 -360 -67 -14 -3 -65 -16 -115 -30 -712
-193 -1159 -518 -1335 -973 -25 -63 -49 -150 -57 -200 -3 -19 -9 -55 -13 -80
-9 -50 -6 -325 5 -380 48 -251 154 -456 326 -630 134 -135 293 -233 488 -299
94 -32 97 -33 241 -57 92 -15 345 -21 420 -10 19 3 58 8 85 11 172 20 389 97
537 188 225 140 466 378 622 614 65 98 76 100 77 15 3 -266 18 -552 35 -689
l5 -43 95 0 c86 0 95 2 90 18 -16 52 -26 191 -41 562 -4 85 -9 207 -11 270 -3
63 -7 547 -9 1075 -2 528 -6 1012 -9 1075 -5 116 -23 312 -31 340 -2 8 -7 38
-10 65 -4 28 -11 69 -16 93 -5 23 -12 59 -15 80 -21 134 -143 423 -237 561
-108 159 -300 323 -469 400 -194 89 -490 132 -746 110z m1342 -2622 c-1 -443
-8 -718 -18 -774 -2 -10 -7 -45 -10 -78 -9 -76 -58 -223 -98 -295 -30 -53
-140 -204 -193 -265 -160 -182 -313 -307 -498 -404 -151 -81 -279 -119 -477
-145 -52 -7 -287 -9 -298 -3 -4 3 -35 8 -70 11 -34 4 -73 11 -87 16 -14 5 -25
8 -25 5 0 -8 -203 66 -259 95 -208 106 -380 296 -468 515 -28 71 -53 165 -59
220 -3 22 -7 46 -10 54 -6 17 -6 247 0 276 2 11 7 40 10 65 52 388 396 751
898 949 263 103 603 185 898 216 30 3 73 8 95 10 22 3 60 7 85 10 25 3 95 7
155 11 61 3 111 7 112 7 1 1 73 3 160 4 l158 3 -1 -503z"/>
</g>
</svg>
